# xmcd CD database file
#
# Track frame offsets:
#	150
#	15688
#	35913
#	59681
#	72893
#	88547
#	103311
#	120369
#	142443
#	160566
#
# Disc length: 2363 seconds
#
# Revision: 0
# Processed by: cddbd v1.5.2PL0 Copyright (c) Steve Scherf et al.
# Submitted via: CDex 1.70beta2
#
DISCID=8f09390a
DTITLE=David Benoit Featuring Jane Monheit - 2 In Love
DYEAR=2015
DGENRE=Jazz
TTITLE0=Barcelona Nights
TTITLE1=This Dance
TTITLE2=Too In Love
TTITLE3=Dragonfly
TTITLE4=Love Will Light The Way
TTITLE5=Love In Hyde Park
TTITLE6=The Songs We Sang
TTITLE7=Fly Away
TTITLE8=Something's Gotta Give
TTITLE9=Love Theme From Candide/Send In The Clowns
EXTD=YEAR: 2015
EXTT0=
EXTT1=
EXTT2=
EXTT3=
EXTT4=
EXTT5=
EXTT6=
EXTT7=
EXTT8=
EXTT9=
PLAYORDER=
